<?xml version="1.0" encoding="UTF-8"?>
<svg version="1.1" xmlns="http://www.w3.org/2000/svg" width="512" height="512">
<path d="M0 0 C16.09534761 13.77719607 25.42230812 31.04331949 27.43359375 52.171875 C28.8601719 71.30912268 22.73191789 90.23681782 10.5 105 C3.04269601 113.60329245 -5.84341946 119.87158392 -16.1328125 124.703125 C-18.97426821 126.63816653 -19.49366004 127.85693748 -20.3125 131.1875 C-20.35913361 132.57904679 -20.37178196 133.97201979 -20.35595703 135.36425781 C-20.3344458 137.2567627 -20.3344458 137.2567627 -20.3125 139.1875 C-19.75003067 139.40173615 -19.18756134 139.61597229 -18.60804749 139.83670044 C11.10176336 151.15413966 40.793873 162.51495627 70.4453125 173.98461914 C82.44968152 178.62723314 94.46010229 183.252903 106.484375 187.84375 C110.05392616 189.20867595 113.62336068 190.57390657 117.19277954 191.93917847 C119.45230856 192.80212982 121.71252561 193.66328213 123.97348022 194.52249146 C127.09734977 195.70968817 130.21879214 196.90307482 133.33984375 198.09765625 C134.24454407 198.43941895 135.14924438 198.78118164 136.08135986 199.13330078 C152.6695881 205.50695325 166.68827498 214.21464377 174.5625 230.8125 C178.68046908 240.17152063 179.05250619 248.75626432 179.0625 258.875 C179.08699219 260.16083984 179.11148437 261.44667969 179.13671875 262.77148438 C179.1876206 279.56061081 173.5921567 292.68987655 162.1640625 304.86328125 C152.25426725 314.16348341 139.15416538 319.29894116 125.58561134 319.32172108 C124.35178455 319.32617892 123.11795776 319.33063676 121.84674227 319.33522969 C120.48047995 319.33514041 119.11421762 319.33495057 117.74795532 319.33467102 C116.29415011 319.33797164 114.84034581 319.34169763 113.38654268 319.3458125 C109.39064011 319.35581844 105.39475256 319.35954704 101.39883924 319.36220181 C97.08911837 319.36610914 92.77940934 319.3756873 88.46969604 319.38441467 C78.06004995 319.40416881 67.6504029 319.41424477 57.24074274 319.42314246 C52.33541492 319.4275278 47.43008817 319.43289404 42.5247612 319.43813133 C26.2119831 319.45514391 9.89920567 319.46963666 -6.41357994 319.47688007 C-10.64599992 319.47878989 -14.87841989 319.48071023 -19.11083984 319.48266602 C-20.16275531 319.48314976 -21.21467077 319.4836335 -22.29846247 319.4841319 C-39.32734201 319.49242684 -56.35615119 319.51775459 -73.38500004 319.55024669 C-90.87895414 319.58335328 -108.37287254 319.60133216 -125.86685812 319.60452431 C-135.68462272 319.60668627 -145.50228476 319.61538861 -155.32001877 319.64098549 C-163.68393045 319.66274183 -172.04771465 319.67071876 -180.41165142 319.66101871 C-184.67480509 319.65648803 -188.93769602 319.65828787 -193.20081329 319.67778015 C-197.11334176 319.69551389 -201.02541781 319.69433245 -204.93795176 319.67888286 C-206.34385279 319.67652212 -207.74978601 319.6807495 -209.15563814 319.69271151 C-227.20344449 319.83660563 -241.67461218 315.12862031 -254.98828125 302.671875 C-266.1071446 290.78683788 -269.51375454 277.4994911 -269.60766602 261.70703125 C-269.62471145 259.72111756 -269.6685716 257.73549227 -269.71289062 255.75 C-269.81724277 239.69582397 -264.83524541 226.11375721 -253.67285156 214.45898438 C-242.44539463 203.65424097 -227.60389874 199.28700526 -213.3125 193.9375 C-210.75892649 192.97088 -208.20717999 191.99948393 -205.65551758 191.02783203 C-200.42235623 189.03691607 -195.18609264 187.05439804 -189.94775391 185.07714844 C-179.67066947 181.19594693 -169.42238421 177.2401969 -159.17321777 173.28598022 C-153.88662229 171.24765651 -148.59751671 169.21586885 -143.30859375 167.18359375 C-134.13331047 163.65703629 -124.95899264 160.12797575 -115.78515625 156.59765625 C-112.20220616 155.21899665 -108.61924674 153.84036132 -105.0362854 152.46173096 C-102.74439423 151.57979914 -100.45254358 150.69776202 -98.16073608 149.81561279 C-94.98748476 148.5942135 -91.81407202 147.37323448 -88.640625 146.15234375 C-87.70972549 145.79390884 -86.77882599 145.43547394 -85.81971741 145.06617737 C-80.65978149 143.08155007 -75.49185622 141.12090015 -70.3125 139.1875 C-70.28671875 137.88296875 -70.2609375 136.5784375 -70.234375 135.234375 C-69.94940091 125.31442676 -69.49363265 116.35764517 -65.3125 107.1875 C-64.96316406 106.40503906 -64.61382812 105.62257813 -64.25390625 104.81640625 C-58.07105887 92.47210542 -47.63737412 84.35288353 -35.5625 78.25 C-29.43931195 75.02361763 -25.5123833 70.78714991 -23.3125 64.1875 C-22.67070436 56.49647357 -22.45677881 49.51647406 -27.3125 43.1875 C-32.44784762 38.05215238 -37.83151378 35.10981454 -45.125 34.6875 C-51.88058763 34.90409136 -57.84635983 37.56555675 -62.4765625 42.48828125 C-64.44883119 45.38793585 -65.3692441 47.81872891 -66.3125 51.1875 C-66.6425 52.321875 -66.9725 53.45625 -67.3125 54.625 C-67.6425 55.800625 -67.9725 56.97625 -68.3125 58.1875 C-68.96833207 60.52390176 -69.63465008 62.85739091 -70.3125 65.1875 C-70.60125 66.21875 -70.89 67.25 -71.1875 68.3125 C-73.17011158 73.37917405 -76.0372275 76.41903436 -80.8125 78.9375 C-81.5653125 79.34484375 -82.318125 79.7521875 -83.09375 80.171875 C-90.03421996 83.34885069 -97.11536412 82.81864151 -104.140625 80.2265625 C-110.5664063 77.15235778 -114.27591202 72.49425965 -117.3125 66.1875 C-121.76967831 52.81596506 -116.82231721 38.25639927 -111.1875 26.1875 C-100.97031868 6.58273755 -85.80560143 -6.11938256 -64.7578125 -12.8671875 C-42.47122708 -18.98210096 -18.2805798 -13.94281511 0 0 Z M-56.9296875 186.47265625 C-57.8736438 186.83559784 -58.8176001 187.19853943 -59.79016113 187.57247925 C-62.92864094 188.78334152 -66.05778368 190.01668233 -69.1875 191.25 C-71.41689267 192.11487932 -73.64688655 192.97821032 -75.87744141 193.84008789 C-80.6039024 195.66916999 -85.32669008 197.50732233 -90.046875 199.35253906 C-97.17933108 202.13916305 -104.32240562 204.89765608 -111.46875 207.6484375 C-120.97288918 211.30780357 -130.47417874 214.97440057 -139.97265625 218.6484375 C-149.66302274 222.39575002 -159.35857021 226.12932046 -169.05859375 229.8515625 C-170.25011047 230.30896317 -171.4416272 230.76636383 -172.66925049 231.23762512 C-181.85363224 234.76309991 -181.85363224 234.76309991 -186.44622803 236.52194214 C-204.54218017 241.95117142 -204.54218017 241.95117142 -220.3125 251.1875 C-222.04635202 256.44462823 -222.27078683 262.18759706 -219.875 267.1875 C-218.4664966 269.07413383 -218.4664966 269.07413383 -217.3125 270.1875 C-215.4857087 270.28773313 -213.65499437 270.31674124 -211.82545662 270.31892776 C-210.62702759 270.32276891 -209.42859856 270.32661005 -208.1938535 270.3305676 C-206.84685646 270.32978722 -205.49985947 270.3289084 -204.15286255 270.32794189 C-202.73520542 270.33052331 -201.31754902 270.33353584 -199.89989364 270.3369453 C-195.98579981 270.34504483 -192.07172428 270.3468065 -188.15762305 270.34754276 C-183.94349658 270.3493882 -179.72937973 270.35693292 -175.51525879 270.36367798 C-166.29227153 270.37728266 -157.0692886 270.38328931 -147.84629297 270.38768864 C-142.09213703 270.3904474 -136.33798278 270.39468406 -130.58382797 270.39919281 C-114.66579099 270.41138815 -98.74775537 270.42168702 -82.82971382 270.4250679 C-81.81014536 270.42528747 -80.79057689 270.42550703 -79.74011242 270.42573325 C-78.71804479 270.42595153 -77.69597716 270.42616981 -76.64293778 270.4263947 C-74.57169159 270.42683817 -72.5004454 270.42728474 -70.42919922 270.42773438 C-69.40178017 270.4279558 -68.37436112 270.42817723 -67.31580816 270.42840537 C-50.66010608 270.43235514 -34.00444771 270.44981343 -17.34876253 270.4730939 C-0.26631717 270.496779 16.81610622 270.50926845 33.89856827 270.51043582 C43.49689558 270.51135417 53.09516596 270.51714663 62.69347763 270.53525543 C70.86531178 270.55061813 79.03707141 270.55579964 87.20891725 270.54751733 C91.38140104 270.54359719 95.55373458 270.54460639 99.7262001 270.55857468 C103.54197759 270.57123251 107.35749068 270.57018835 111.17326738 270.55798396 C112.55753723 270.55601277 113.94182529 270.55917035 115.32606946 270.56782833 C117.20027431 270.5788135 119.07456538 270.56969792 120.94877434 270.5594368 C122.51373801 270.56033243 122.51373801 270.56033243 124.11031711 270.56124616 C126.7027845 270.38489706 126.7027845 270.38489706 128.51467621 268.89252543 C130.52350391 265.97213589 130.24081467 262.67000288 130.25 259.25 C130.30510742 258.17588867 130.30510742 258.17588867 130.36132812 257.08007812 C130.44737092 254.67691309 130.44737092 254.67691309 129.6875 251.1875 C124.7783153 247.116825 118.99614771 245.18045792 113.07421875 242.9765625 C112.01764069 242.57621292 110.96106262 242.17586334 109.87246704 241.76338196 C107.58016279 240.89569896 105.28657132 240.03141069 102.99185181 239.1701355 C99.31192175 237.7888227 95.63522133 236.39913431 91.9597168 235.00610352 C90.69282549 234.52601578 89.42593401 234.0459285 88.15904236 233.56584167 C87.52543226 233.32571035 86.89182217 233.08557903 86.23901176 232.83817101 C84.28949937 232.09971564 82.33962412 231.36222562 80.3896637 230.62495422 C68.08275178 225.97000777 55.80557043 221.23910122 43.5340271 216.49172974 C40.0015751 215.12560915 36.46832254 213.76157981 32.93481445 212.39819336 C22.74113348 208.46424508 12.54921642 204.52596659 2.36700726 200.56240749 C-3.08088493 198.44188264 -8.53135646 196.32805333 -13.98257446 194.21609497 C-16.26437502 193.33037074 -18.54513987 192.44197313 -20.82479858 191.55075073 C-23.9665705 190.32267707 -27.1117391 189.10372216 -30.2578125 187.88671875 C-31.17799667 187.52431091 -32.09818085 187.16190308 -33.04624939 186.78851318 C-42.21985813 183.26146395 -47.80031074 182.81798928 -56.9296875 186.47265625 Z " fill="#ACAC48" transform="translate(301.3125,103.8125)"/>
</svg>
